<svg width="90" height="101" viewBox="0 0 90 101" fill="none" xmlns="http://www.w3.org/2000/svg">
<g filter="url(#filter0_d_181_1059)">
<path d="M35.7251 29.7918L31.9918 23.6085C30.5918 21.3335 27.821 20.0501 25.2251 20.8085C21.3168 21.9751 19.8001 26.3793 21.7543 29.6168L25.6043 35.946C26.0418 36.6168 26.946 36.8501 27.6168 36.4418L35.2293 31.8043C35.9293 31.3668 36.1626 30.4626 35.7251 29.7918Z" fill="#FCFAF1"/>
</g>
<g filter="url(#filter1_d_181_1059)">
<path d="M67.5757 56.9461L59.3799 45.8628C56.5216 42.0128 51.5632 40.2044 46.8966 41.4586C46.8966 41.4294 46.8674 41.4294 46.8674 41.4003L42.0257 33.4378C41.1507 32.0669 39.3424 31.6294 37.9716 32.4753L27.8507 38.6294C26.4507 39.4461 26.0132 41.2836 26.8591 42.6836L31.6716 50.6461C31.6716 50.6461 31.6716 50.6753 31.7007 50.6753C28.4632 54.2628 27.7632 59.4836 29.9216 63.8294L35.9882 76.1961C37.8549 80.0169 42.2591 81.4753 45.9924 79.5503C46.2841 79.4044 46.3716 79.0544 46.1966 78.7628L41.6466 71.2378C41.0049 70.1878 41.3257 68.8461 42.3757 68.1753C43.4257 67.5628 44.7674 67.8836 45.4382 68.9044L50.0174 76.4294C50.1924 76.6919 50.5424 76.7794 50.8049 76.6336L53.6049 74.9419C53.8674 74.7669 53.9549 74.4169 53.8091 74.1544L49.2299 66.6294C48.6174 65.5794 48.9382 64.2378 49.9591 63.5669C51.0382 62.9544 52.3799 63.2753 53.0216 64.2961L57.6007 71.8211C57.7757 72.0836 58.1257 72.1711 58.3882 72.0253L61.1882 70.3336C61.4507 70.1586 61.5382 69.8086 61.3924 69.5461L56.8132 62.0211C56.2007 60.9711 56.5216 59.6294 57.5424 58.9586C58.6216 58.3461 59.9632 58.6669 60.6049 59.6878L65.2132 67.1836C65.3882 67.4461 65.7382 67.5336 66.0007 67.3586C69.3841 64.9378 70.1424 60.3878 67.5757 56.9461Z" fill="#FCFAF1"/>
</g>
<defs>
<filter id="filter0_d_181_1059" x="0.90332" y="0.589966" width="55.0439" height="56.0538" filterUnits="userSpaceOnUse" color-interpolation-filters="sRGB">
<feFlood flood-opacity="0" result="BackgroundImageFix"/>
<feColorMatrix in="SourceAlpha" type="matrix" values="0 0 0 0 0 0 0 0 0 0 0 0 0 0 0 0 0 0 127 0" result="hardAlpha"/>
<feOffset/>
<feGaussianBlur stdDeviation="10"/>
<feComposite in2="hardAlpha" operator="out"/>
<feColorMatrix type="matrix" values="0 0 0 0 1 0 0 0 0 1 0 0 0 0 1 0 0 0 0.46 0"/>
<feBlend mode="normal" in2="BackgroundImageFix" result="effect1_dropShadow_181_1059"/>
<feBlend mode="normal" in="SourceGraphic" in2="effect1_dropShadow_181_1059" result="shape"/>
</filter>
<filter id="filter1_d_181_1059" x="6.42871" y="12.0437" width="82.6758" height="88.3531" filterUnits="userSpaceOnUse" color-interpolation-filters="sRGB">
<feFlood flood-opacity="0" result="BackgroundImageFix"/>
<feColorMatrix in="SourceAlpha" type="matrix" values="0 0 0 0 0 0 0 0 0 0 0 0 0 0 0 0 0 0 127 0" result="hardAlpha"/>
<feOffset/>
<feGaussianBlur stdDeviation="10"/>
<feComposite in2="hardAlpha" operator="out"/>
<feColorMatrix type="matrix" values="0 0 0 0 1 0 0 0 0 1 0 0 0 0 1 0 0 0 0.46 0"/>
<feBlend mode="normal" in2="BackgroundImageFix" result="effect1_dropShadow_181_1059"/>
<feBlend mode="normal" in="SourceGraphic" in2="effect1_dropShadow_181_1059" result="shape"/>
</filter>
</defs>
</svg>
