<svg width="93" height="99" viewBox="0 0 93 99" fill="none" xmlns="http://www.w3.org/2000/svg">
<g filter="url(#filter0_d_181_1062)">
<path d="M65.4626 31.0375L31.2209 65.2792C29.9376 66.5625 27.7792 66.3875 26.7292 64.8709C23.1126 59.5917 20.9834 53.35 20.9834 46.9334V34.1292C20.9834 31.7375 22.7917 29.025 25.0084 28.1209L41.2542 21.4709C44.9292 19.9542 49.0126 19.9542 52.6876 21.4709L64.5001 26.2834C66.4251 27.0709 66.9209 29.5792 65.4626 31.0375Z" fill="#FCFAF1"/>
</g>
<g filter="url(#filter1_d_181_1062)">
<path d="M68.2039 35.0334C70.0997 33.4292 72.9872 34.8 72.9872 37.2792V46.9334C72.9872 61.1959 62.633 74.5542 48.4872 78.4625C47.5247 78.725 46.4747 78.725 45.483 78.4625C41.3414 77.2959 37.4914 75.3417 34.1955 72.775C32.7955 71.6959 32.6497 69.6542 33.8747 68.4C40.233 61.8959 58.8414 42.9375 68.2039 35.0334Z" fill="#FCFAF1"/>
</g>
<defs>
<filter id="filter0_d_181_1062" x="0.983398" y="0.333374" width="85.3252" height="85.8031" filterUnits="userSpaceOnUse" color-interpolation-filters="sRGB">
<feFlood flood-opacity="0" result="BackgroundImageFix"/>
<feColorMatrix in="SourceAlpha" type="matrix" values="0 0 0 0 0 0 0 0 0 0 0 0 0 0 0 0 0 0 127 0" result="hardAlpha"/>
<feOffset/>
<feGaussianBlur stdDeviation="10"/>
<feComposite in2="hardAlpha" operator="out"/>
<feColorMatrix type="matrix" values="0 0 0 0 1 0 0 0 0 1 0 0 0 0 1 0 0 0 0.46 0"/>
<feBlend mode="normal" in2="BackgroundImageFix" result="effect1_dropShadow_181_1062"/>
<feBlend mode="normal" in="SourceGraphic" in2="effect1_dropShadow_181_1062" result="shape"/>
</filter>
<filter id="filter1_d_181_1062" x="13.043" y="14.3424" width="79.9443" height="84.317" filterUnits="userSpaceOnUse" color-interpolation-filters="sRGB">
<feFlood flood-opacity="0" result="BackgroundImageFix"/>
<feColorMatrix in="SourceAlpha" type="matrix" values="0 0 0 0 0 0 0 0 0 0 0 0 0 0 0 0 0 0 127 0" result="hardAlpha"/>
<feOffset/>
<feGaussianBlur stdDeviation="10"/>
<feComposite in2="hardAlpha" operator="out"/>
<feColorMatrix type="matrix" values="0 0 0 0 1 0 0 0 0 1 0 0 0 0 1 0 0 0 0.46 0"/>
<feBlend mode="normal" in2="BackgroundImageFix" result="effect1_dropShadow_181_1062"/>
<feBlend mode="normal" in="SourceGraphic" in2="effect1_dropShadow_181_1062" result="shape"/>
</filter>
</defs>
</svg>
