<svg width="102" height="87" viewBox="0 0 102 87" fill="none" xmlns="http://www.w3.org/2000/svg">
<g filter="url(#filter0_d_181_1056)">
<path d="M61.8888 23.6959L66.0013 31.9209C66.5555 33.0584 68.043 34.1375 69.2972 34.3709L76.7347 35.5959C81.4888 36.3834 82.5972 39.825 79.1847 43.2667L73.3805 49.0709C72.418 50.0334 71.8638 51.9292 72.1847 53.3L73.8472 60.475C75.1597 66.1334 72.1263 68.35 67.1388 65.375L60.168 61.2334C58.9138 60.475 56.8138 60.475 55.5597 61.2334L48.5888 65.375C43.6013 68.3209 40.568 66.1334 41.8805 60.475L43.543 53.3C43.8055 51.9 43.2513 50.0042 42.2888 49.0417L36.4847 43.2375C33.0722 39.825 34.1805 36.3834 38.9347 35.5667L46.3722 34.3417C47.6263 34.1375 49.1138 33.0292 49.668 31.8917L53.7805 23.6667C56.0263 19.2334 59.643 19.2334 61.8888 23.6959Z" fill="#FCFAF1"/>
</g>
<g filter="url(#filter1_d_181_1056)">
<path d="M40.333 25.2709H22.833C21.6372 25.2709 20.6455 24.2792 20.6455 23.0834C20.6455 21.8875 21.6372 20.8959 22.833 20.8959H40.333C41.5288 20.8959 42.5205 21.8875 42.5205 23.0834C42.5205 24.2792 41.5288 25.2709 40.333 25.2709Z" fill="#FCFAF1"/>
</g>
<g filter="url(#filter2_d_181_1056)">
<path d="M31.583 66.1041H22.833C21.6372 66.1041 20.6455 65.1125 20.6455 63.9166C20.6455 62.7208 21.6372 61.7291 22.833 61.7291H31.583C32.7788 61.7291 33.7705 62.7208 33.7705 63.9166C33.7705 65.1125 32.7788 66.1041 31.583 66.1041Z" fill="#FCFAF1"/>
</g>
<g filter="url(#filter3_d_181_1056)">
<path d="M25.7497 45.6875H22.833C21.6372 45.6875 20.6455 44.6958 20.6455 43.5C20.6455 42.3042 21.6372 41.3125 22.833 41.3125H25.7497C26.9455 41.3125 27.9372 42.3042 27.9372 43.5C27.9372 44.6958 26.9455 45.6875 25.7497 45.6875Z" fill="#FCFAF1"/>
</g>
<defs>
<filter id="filter0_d_181_1056" x="14.5029" y="0.345337" width="86.6631" height="86.3528" filterUnits="userSpaceOnUse" color-interpolation-filters="sRGB">
<feFlood flood-opacity="0" result="BackgroundImageFix"/>
<feColorMatrix in="SourceAlpha" type="matrix" values="0 0 0 0 0 0 0 0 0 0 0 0 0 0 0 0 0 0 127 0" result="hardAlpha"/>
<feOffset/>
<feGaussianBlur stdDeviation="10"/>
<feComposite in2="hardAlpha" operator="out"/>
<feColorMatrix type="matrix" values="0 0 0 0 1 0 0 0 0 1 0 0 0 0 1 0 0 0 0.46 0"/>
<feBlend mode="normal" in2="BackgroundImageFix" result="effect1_dropShadow_181_1056"/>
<feBlend mode="normal" in="SourceGraphic" in2="effect1_dropShadow_181_1056" result="shape"/>
</filter>
<filter id="filter1_d_181_1056" x="0.645508" y="0.895874" width="61.875" height="44.375" filterUnits="userSpaceOnUse" color-interpolation-filters="sRGB">
<feFlood flood-opacity="0" result="BackgroundImageFix"/>
<feColorMatrix in="SourceAlpha" type="matrix" values="0 0 0 0 0 0 0 0 0 0 0 0 0 0 0 0 0 0 127 0" result="hardAlpha"/>
<feOffset/>
<feGaussianBlur stdDeviation="10"/>
<feComposite in2="hardAlpha" operator="out"/>
<feColorMatrix type="matrix" values="0 0 0 0 1 0 0 0 0 1 0 0 0 0 1 0 0 0 0.46 0"/>
<feBlend mode="normal" in2="BackgroundImageFix" result="effect1_dropShadow_181_1056"/>
<feBlend mode="normal" in="SourceGraphic" in2="effect1_dropShadow_181_1056" result="shape"/>
</filter>
<filter id="filter2_d_181_1056" x="0.645508" y="41.7291" width="53.125" height="44.375" filterUnits="userSpaceOnUse" color-interpolation-filters="sRGB">
<feFlood flood-opacity="0" result="BackgroundImageFix"/>
<feColorMatrix in="SourceAlpha" type="matrix" values="0 0 0 0 0 0 0 0 0 0 0 0 0 0 0 0 0 0 127 0" result="hardAlpha"/>
<feOffset/>
<feGaussianBlur stdDeviation="10"/>
<feComposite in2="hardAlpha" operator="out"/>
<feColorMatrix type="matrix" values="0 0 0 0 1 0 0 0 0 1 0 0 0 0 1 0 0 0 0.46 0"/>
<feBlend mode="normal" in2="BackgroundImageFix" result="effect1_dropShadow_181_1056"/>
<feBlend mode="normal" in="SourceGraphic" in2="effect1_dropShadow_181_1056" result="shape"/>
</filter>
<filter id="filter3_d_181_1056" x="0.645508" y="21.3125" width="47.292" height="44.375" filterUnits="userSpaceOnUse" color-interpolation-filters="sRGB">
<feFlood flood-opacity="0" result="BackgroundImageFix"/>
<feColorMatrix in="SourceAlpha" type="matrix" values="0 0 0 0 0 0 0 0 0 0 0 0 0 0 0 0 0 0 127 0" result="hardAlpha"/>
<feOffset/>
<feGaussianBlur stdDeviation="10"/>
<feComposite in2="hardAlpha" operator="out"/>
<feColorMatrix type="matrix" values="0 0 0 0 1 0 0 0 0 1 0 0 0 0 1 0 0 0 0.46 0"/>
<feBlend mode="normal" in2="BackgroundImageFix" result="effect1_dropShadow_181_1056"/>
<feBlend mode="normal" in="SourceGraphic" in2="effect1_dropShadow_181_1056" result="shape"/>
</filter>
</defs>
</svg>
