<svg width="36" height="36" viewBox="0 0 36 36" fill="none" xmlns="http://www.w3.org/2000/svg">
<rect x="0.000976562" width="36" height="36" rx="8" fill="#D6AE30" fill-opacity="0.25"/>
<path d="M23.001 24.43H19.001L14.551 27.39C13.891 27.83 13.001 27.36 13.001 26.56V24.43C10.001 24.43 8.00098 22.43 8.00098 19.43V13.4299C8.00098 10.4299 10.001 8.42993 13.001 8.42993H23.001C26.001 8.42993 28.001 10.4299 28.001 13.4299V19.43C28.001 22.43 26.001 24.43 23.001 24.43Z" stroke="#D6AE30" stroke-width="1.5" stroke-miterlimit="10" stroke-linecap="round" stroke-linejoin="round"/>
<path d="M18.0008 17.36V17.15C18.0008 16.47 18.4208 16.11 18.8408 15.82C19.2508 15.54 19.6608 15.18 19.6608 14.52C19.6608 13.6 18.9208 12.86 18.0008 12.86C17.0808 12.86 16.3408 13.6 16.3408 14.52" stroke="#D6AE30" stroke-width="1.5" stroke-linecap="round" stroke-linejoin="round"/>
<path d="M17.9965 19.75H18.0055" stroke="#D6AE30" stroke-width="1.5" stroke-linecap="round" stroke-linejoin="round"/>
</svg>
