<svg width="64" height="54" viewBox="0 0 64 54" fill="none" xmlns="http://www.w3.org/2000/svg">
<path d="M14.9758 45C13.7812 45 12.7643 44.646 11.9252 43.938C11.0861 43.23 10.6665 42.3727 10.6665 41.3662V12.6337C10.6665 11.6287 11.0861 10.7715 11.9252 10.062C12.7643 9.354 13.7812 9 14.9758 9H49.0265C50.2176 9 51.2336 9.354 52.0745 10.062C52.9136 10.77 53.3332 11.628 53.3332 12.636V41.3662C53.3332 42.3713 52.9136 43.2285 52.0745 43.938C51.2354 44.646 50.2194 45 49.0265 45H14.9758ZM33.3332 28.125V42.75H49.0265C49.5047 42.75 49.8976 42.6203 50.2052 42.3607C50.5127 42.1012 50.6665 41.7697 50.6665 41.3662V28.125H33.3332ZM33.3332 25.875H50.6665V12.636C50.6665 12.231 50.5127 11.8987 50.2052 11.6392C49.8976 11.3797 49.5047 11.25 49.0265 11.25H33.3332V25.875ZM30.6665 25.875V11.25H14.9758C14.4958 11.25 14.1021 11.3797 13.7945 11.6392C13.4869 11.8987 13.3332 12.231 13.3332 12.636V25.875H30.6665ZM30.6665 28.125H13.3332V41.3662C13.3332 41.7697 13.4869 42.1012 13.7945 42.3607C14.1021 42.6203 14.4958 42.75 14.9758 42.75H30.6665V28.125Z" fill="#D6AE30"/>
</svg>
