<svg width="62" height="64" viewBox="0 0 62 64" fill="none" xmlns="http://www.w3.org/2000/svg">
<mask id="mask0_93_1090" style="mask-type:luminance" maskUnits="userSpaceOnUse" x="0" y="0" width="62" height="64">
<path d="M0 0H62V64H0V0Z" fill="white"/>
</mask>
<g mask="url(#mask0_93_1090)">
<path d="M44.8337 42.0039H36.5413C35.6113 42.0039 34.875 41.2439 34.875 40.2839V31.7239C34.875 30.7839 35.6113 30.0039 36.5413 30.0039H44.8337C45.7444 30.0039 46.5 30.7639 46.5 31.7239V40.2839C46.5 41.2439 45.7637 42.0039 44.8337 42.0039Z" fill="#D6AE30"/>
<path d="M35.4173 1.84594L35.425 1.85594L60.1378 26.9859L60.1436 26.9919C60.7316 27.5835 61.1988 28.2906 61.5176 29.0717C61.8364 29.8527 62.0003 30.6917 61.9998 31.5392C61.9993 32.3867 61.8342 33.2255 61.5144 34.0061C61.1946 34.7867 60.7265 35.4932 60.1378 36.0839C59.0779 37.1662 57.675 37.8167 56.1873 37.9159V50.2179C57.8432 50.627 59.3174 51.6 60.3719 52.9799C61.4265 54.3599 61.9999 56.0663 61.9998 57.8239V62.0039H-0.000238087V57.8239C-0.00290196 56.0654 0.569583 54.3575 1.6245 52.9767C2.67942 51.5959 4.155 50.6231 5.81226 50.2159V37.9959C4.3253 37.8897 2.92382 37.2394 1.85976 36.1619C1.27114 35.5692 0.803294 34.861 0.483742 34.0789C0.164189 33.2968 -0.000614917 32.4566 -0.000975968 31.6078C-0.00133702 30.759 0.162752 29.9186 0.481639 29.1362C0.800526 28.3539 1.26777 27.6452 1.85589 27.0519L1.8617 27.0479L7.74976 21.0639V7.04394C7.74976 4.11794 10.0903 1.99994 12.6768 1.99994H18.3421C20.4772 1.99994 22.3953 3.43994 23.0308 5.53794L26.6443 1.85994C29.0855 -0.644056 32.9993 -0.596056 35.4134 1.84394M19.3748 14.8639V7.04394C19.3717 6.76422 19.2612 6.49718 19.0676 6.30145C18.874 6.10571 18.6131 5.99728 18.3421 5.99994H12.6768C12.541 5.99649 12.4059 6.0209 12.2792 6.07174C12.1526 6.12259 12.037 6.19887 11.9392 6.29616C11.8413 6.39345 11.7632 6.50982 11.7092 6.63853C11.6552 6.76723 11.6265 6.90571 11.6248 7.04594V22.7379L19.3748 14.8639ZM9.68726 31.4919V54.0039H13.5623C13.5623 52.9039 14.4341 52.0039 15.4998 52.0039V32.7839C15.4998 31.2839 16.6816 30.0639 18.1348 30.0639H28.3841C29.8373 30.0639 31.0191 31.2839 31.0191 32.7839V52.0079C32.0402 52.0599 32.8598 52.9379 32.8598 54.0039H52.3123V31.4119L31.0385 9.78594L9.68726 31.4919ZM29.0623 41.0039C29.0623 40.7387 28.9602 40.4844 28.7785 40.2968C28.5968 40.1093 28.3504 40.0039 28.0935 40.0039C27.8366 40.0039 27.5902 40.1093 27.4085 40.2968C27.2268 40.4844 27.1248 40.7387 27.1248 41.0039C27.1248 41.2692 27.2268 41.5235 27.4085 41.711C27.5902 41.8986 27.8366 42.0039 28.0935 42.0039C28.3504 42.0039 28.5968 41.8986 28.7785 41.711C28.9602 41.5235 29.0623 41.2692 29.0623 41.0039Z" fill="#D6AE30"/>
</g>
</svg>
