<svg width="62" height="64" viewBox="0 0 62 64" fill="none" xmlns="http://www.w3.org/2000/svg">
<g clip-path="url(#clip0_93_1098)">
<path fill-rule="evenodd" clip-rule="evenodd" d="M34.49 8.17065C34.1703 8.0368 33.8279 7.97042 33.4829 7.97542C33.1379 7.98042 32.7974 8.0567 32.4814 8.19976C32.1655 8.34283 31.8805 8.54977 31.6433 8.80838C31.4061 9.06699 31.2214 9.37203 31.1003 9.7055C30.9792 10.039 30.924 10.3941 30.9379 10.7499C30.9519 11.1058 31.0348 11.4552 31.1818 11.7774C31.3287 12.0996 31.5366 12.3882 31.7934 12.6261C32.0501 12.8641 32.3504 13.0465 32.6765 13.1627L33.5833 13.5147V21.9627L7.07054 29.4293C6.46855 29.6007 5.94708 29.9914 5.60262 30.5291C5.25817 31.0668 5.11405 31.715 5.19693 32.3539C5.27982 32.9928 5.58409 33.5791 6.05345 34.0043C6.52281 34.4295 7.12549 34.6648 7.74995 34.6667V50.6667C7.74995 52.0811 8.2943 53.4377 9.26324 54.4379C10.2322 55.4381 11.5463 56 12.9166 56H49.0833C50.4536 56 51.7677 55.4381 52.7367 54.4379C53.7056 53.4377 54.25 52.0811 54.25 50.6667V21.3333C54.8547 21.3327 55.4401 21.1131 55.9041 20.7127C56.3681 20.3123 56.6814 19.7566 56.7893 19.1424C56.8972 18.5281 56.7929 17.8942 56.4945 17.3512C56.1962 16.8082 55.7228 16.3904 55.1567 16.1707L34.49 8.17065ZM49.0833 19.5147L38.75 15.5147V50.6667H49.0833V19.5147ZM25.8333 42.6667V50.6667H33.5833V27.4933L12.9166 33.3067V50.6667H20.6666V42.6667C20.6666 41.9594 20.9388 41.2811 21.4233 40.781C21.9077 40.2809 22.5648 40 23.25 40C23.9351 40 24.5922 40.2809 25.0766 40.781C25.5611 41.2811 25.8333 41.9594 25.8333 42.6667ZM40.0416 29.3333C40.0416 28.6261 40.3138 27.9478 40.7983 27.4477C41.2827 26.9476 41.9398 26.6667 42.625 26.6667H45.2083C45.8934 26.6667 46.5505 26.9476 47.035 27.4477C47.5195 27.9478 47.7916 28.6261 47.7916 29.3333C47.7916 30.0406 47.5195 30.7188 47.035 31.2189C46.5505 31.719 45.8934 32 45.2083 32H42.625C41.9398 32 41.2827 31.719 40.7983 31.2189C40.3138 30.7188 40.0416 30.0406 40.0416 29.3333ZM42.625 37.3333C41.9398 37.3333 41.2827 37.6143 40.7983 38.1144C40.3138 38.6145 40.0416 39.2927 40.0416 40C40.0416 40.7072 40.3138 41.3855 40.7983 41.8856C41.2827 42.3857 41.9398 42.6667 42.625 42.6667H45.2083C45.8934 42.6667 46.5505 42.3857 47.035 41.8856C47.5195 41.3855 47.7916 40.7072 47.7916 40C47.7916 39.2927 47.5195 38.6145 47.035 38.1144C46.5505 37.6143 45.8934 37.3333 45.2083 37.3333H42.625Z" fill="#D6AE30"/>
</g>
<defs>
<clipPath id="clip0_93_1098">
<rect width="62" height="64" fill="white"/>
</clipPath>
</defs>
</svg>
