<svg width="62" height="64" viewBox="0 0 62 64" fill="none" xmlns="http://www.w3.org/2000/svg">
<path d="M56.1875 22H52.3125V16C52.3125 14.9391 51.9042 13.9217 51.1775 13.1716C50.4508 12.4214 49.4652 12 48.4375 12H11.625C10.5973 12 9.61166 12.4214 8.88496 13.1716C8.15826 13.9217 7.75 14.9391 7.75 16V22H3.875C3.36114 22 2.86833 22.2107 2.50498 22.5858C2.14163 22.9609 1.9375 23.4696 1.9375 24C1.9375 24.5304 2.14163 25.0391 2.50498 25.4142C2.86833 25.7893 3.36114 26 3.875 26H7.75V32C7.75 33.0609 8.15826 34.0783 8.88496 34.8284C9.61166 35.5786 10.5973 36 11.625 36H48.4375C49.4652 36 50.4508 35.5786 51.1775 34.8284C51.9042 34.0783 52.3125 33.0609 52.3125 32V26H56.1875V38.5L31.8719 45.6625C31.0652 45.9036 30.3557 46.4076 29.8493 47.0993C29.343 47.7909 29.067 48.6331 29.0625 49.5V58C29.0625 58.5304 29.2666 59.0391 29.63 59.4142C29.9933 59.7893 30.4861 60 31 60C31.5139 60 32.0067 59.7893 32.37 59.4142C32.7334 59.0391 32.9375 58.5304 32.9375 58V49.5L57.2531 42.33C58.0586 42.0892 58.7673 41.5863 59.2735 40.8962C59.7797 40.2061 60.0564 39.3656 60.0625 38.5V26C60.0625 24.9391 59.6542 23.9217 58.9275 23.1716C58.2008 22.4214 57.2152 22 56.1875 22ZM48.4375 32H11.625V16H48.4375V32Z" fill="#D6AE30"/>
</svg>
